# xmcd
#
# Track frame offsets: 
#        150
#        14133
#        28374
#        42478
#        57024
#        73552
#        86194
#        98061
#        110905
#        127034
#        141468
#        151698
#        164304
#        176132
#        189905
#        200463
#        217112
#        228716
#        243316
#        254215
#        264622
#        275818
#
# Disc length: 3833 seconds
#
# Revision: 0
# Processed by: cddbd v1.5.2PL0 Copyright (c) Steve Scherf et al.
# Submitted via: ExactAudioCopy v0.99pb5
#
DISCID=610ef716
DTITLE=Charlie Rich - Boss Man - Very Special Love Songs
DYEAR=2005
DGENRE=Country
TTITLE0=Nice 'n' Easy
TTITLE1=Have a Heart
TTITLE2=Down on the River
TTITLE3=I Can't Even Drink It Away
TTITLE4=Memphis and Arkansas Bridge
TTITLE5=Big Boss Man
TTITLE6=Hello Darlin'
TTITLE7=Golden Slipper Rose
TTITLE8=I'll Be More Than Happy (To Set You Free)
TTITLE9=My Joy
TTITLE10=I Do My Swinging at Home
TTITLE11=A Very Special Love Song
TTITLE12=Why Don't We Go Somewhere and Love
TTITLE13=Take Time to Love
TTITLE14=A Satisfied Man
TTITLE15=A Field of Yellow Daisies
TTITLE16=Why Oh Why
TTITLE17=Almost Persuaded
TTITLE18=He Follows My Footsteps
TTITLE19=Stay
TTITLE20=There Won't Be Anymore
TTITLE21=Pretty People
EXTD=
EXTT0=
EXTT1=
EXTT2=
EXTT3=
EXTT4=
EXTT5=
EXTT6=
EXTT7=
EXTT8=
EXTT9=
EXTT10=
EXTT11=
EXTT12=
EXTT13=
EXTT14=
EXTT15=
EXTT16=
EXTT17=
EXTT18=
EXTT19=
EXTT20=
EXTT21=
PLAYORDER=
